/* XPM */
static char *_d937df8d0cb47b0997c4ee8f9c1dce5w6jBcijwTFvOI7ZL[] = {
/* columns rows colors chars-per-pixel */
"64 64 175 2 ",
"   c #C3356A",
".  c #C5386E",
"X  c #C63C72",
"o  c #C83F75",
"O  c #C84173",
"+  c #CC467B",
"@  c #CD4C7D",
"#  c #CE507F",
"$  c #72AF48",
"%  c #79B351",
"&  c #7FB658",
"*  c #82B759",
"=  c #88B75F",
"-  c #83B85B",
";  c #89B760",
":  c #86BA61",
">  c #8ABB63",
",  c #8EBE6A",
"<  c #96B66D",
"1  c #90BE6B",
"2  c #9BB672",
"3  c #98BE74",
"4  c #A7AB7A",
"5  c #A0B375",
"6  c #B2BE7D",
"7  c #8BC25D",
"8  c #92CA5C",
"9  c #8EC363",
"0  c #8FC069",
"q  c #92C565",
"w  c #95CC61",
"e  c #99CD67",
"r  c #93C26D",
"t  c #97C96A",
"y  c #9BCD6C",
"u  c #9ED06E",
"i  c #95C272",
"p  c #99C575",
"a  c #9DCC73",
"s  c #9CC57B",
"d  c #9EC979",
"f  c #9FD070",
"g  c #A0C56B",
"h  c #AAC175",
"j  c #A3CC75",
"k  c #A1C37C",
"l  c #ABC57B",
"z  c #A2CD7D",
"x  c #A1D173",
"c  c #A6D479",
"v  c #A9D57E",
"b  c #D14A81",
"n  c #CF5282",
"m  c #D15886",
"M  c #D9568E",
"N  c #DA5993",
"B  c #D7648E",
"V  c #DA6894",
"C  c #D96B94",
"Z  c #DE739A",
"A  c #E1649D",
"S  c #E0779E",
"D  c #E267A0",
"F  c #E66BA5",
"G  c #E96FAA",
"H  c #E27DA3",
"J  c #EA71AB",
"K  c #E679AA",
"L  c #E97AAE",
"P  c #EC7EB1",
"I  c #B8AA89",
"U  c #B9B08C",
"Y  c #B3B98A",
"T  c #BFAE92",
"R  c #BBBA96",
"E  c #C4AC96",
"W  c #C8AB99",
"Q  c #C1BE96",
"!  c #C3B499",
"~  c #CFB39C",
"^  c #D0B69E",
"/  c #E383A6",
"(  c #E486AB",
")  c #E68AAC",
"_  c #E98EAF",
"`  c #E785B1",
"'  c #EB84B2",
"]  c #E78BB3",
"[  c #EE8BB6",
"{  c #EF8CB9",
"}  c #F08FB8",
"|  c #E794B6",
" . c #E994B5",
".. c #EA96B8",
"X. c #EC9CBC",
"o. c #F196BB",
"O. c #F19BBD",
"+. c #D8A9A7",
"@. c #DBACAB",
"#. c #D9B7AA",
"$. c #DCB4AB",
"%. c #DBB8B1",
"&. c #E1AFAF",
"*. c #E6A9B5",
"=. c #EFA0BE",
"-. c #E6ADB8",
";. c #EBA9BA",
":. c #F0A1BF",
">. c #F0A9BE",
",. c #E7B5BA",
"<. c #9FC880",
"1. c #ABC685",
"2. c #A4CA83",
"3. c #B9C68A",
"4. c #A6D080",
"5. c #ABD683",
"6. c #AFD887",
"7. c #AED689",
"8. c #AFD888",
"9. c #B0D487",
"0. c #B3D68D",
"q. c #B1D98B",
"w. c #BFC591",
"e. c #BDD49C",
"r. c #BFCFA6",
"t. c #C4C395",
"y. c #C1DA9E",
"u. c #C4CAA7",
"i. c #D8C1AD",
"p. c #C0D0A7",
"a. c #C2DBA0",
"s. c #C3D1AA",
"d. c #CADAAA",
"f. c #D9CAB3",
"g. c #C9D4B2",
"h. c #CFDBB2",
"j. c #D3DBBA",
"k. c #EFAAC3",
"l. c #F4A6C3",
"z. c #F4AAC5",
"x. c #F6AFC9",
"c. c #EFB3C4",
"v. c #F1B6C6",
"b. c #F6B2CC",
"n. c #F8B5CE",
"m. c #F6B9CE",
"M. c #F7B9D0",
"N. c #F7BBD2",
"B. c #F8BBD2",
"V. c #D5DBC1",
"C. c #DDDDCB",
"Z. c #E0DECE",
"A. c #F6C0D3",
"S. c #F8C1D6",
"D. c #F8C5D8",
"F. c #F9CBDC",
"G. c #EBDAD6",
"H. c #EEDCDB",
"J. c #F3D4DA",
"K. c #DCE1C3",
"L. c #E0E1CC",
"P. c #E6E2D4",
"I. c #ECE3DC",
"U. c #F9CFE0",
"Y. c #FAD2E2",
"T. c #FAD4E3",
"R. c #FBD6E5",
"E. c #F4DFE2",
"W. c #FBD9E6",
"Q. c #FBDBE8",
"!. c #FBDCE8",
"~. c #F4E5E5",
"^. c #FBE5ED",
"/. c #FAE8ED",
"(. c #FDE9F1",
/* pixels */
"8 8 8 q - - - y w w c c c c q.c c v $ $ $ d c c 5.1 1 1 , - - - w w w 7 $ $ $ y w w a - * * r - - r 8 8 8 t - - , - - - q 8 8 8 ",
"8 8 8 q - - - y w w c c c c q.c c v $ $ $ d c c 5.1 1 1 , - - - w w w 7 $ $ $ y w w a - * * r - - r 8 8 8 t - - , - - - q 8 8 8 ",
"8 8 8 q - - - y w w c c c c q.c c v $ $ $ d c c 5.1 1 1 , - - - w w w 7 $ $ $ y w w a - * * r - - r 8 8 8 t - - , - - - q 8 8 8 ",
"e e e t , , , x e e v 5.5.5.5.x x v * * * z x x v d d d p > > > y y y t - - - x e e d > > > i > > p x x x d > > r q q q y e e e ",
"8 8 8 q > > > y 8 8 x c c c x 8 8 a - - - a w w u c c c t - - - w w w e 8 8 8 y 8 8 t - - - r - - p c c c d - - 0 8 8 8 e 8 8 8 ",
"8 8 8 q > > > y 8 8 x c c c x 8 8 a - - - a w w u c c c t - - - w w w e 8 8 8 y 8 8 t - - - r - - p c c c d - - 0 8 8 8 e 8 8 8 ",
"8 8 8 q > > > y 8 8 x c c c x 8 8 a - - - a w w u c c c t - - - w w w e 8 8 8 y 8 8 t - - - r - - p c c c d - - 0 8 8 8 e 8 8 8 ",
"y y y a i i i i , , p , , , 7.5.5.0.p p p s , , i , , , i i i i i i i i , , , i , , p y y y v u u v y y y x y y x y y y p , , , ",
"8 8 8 q > > > , - - r - - - 5.c c 5.1 1 1 i - - , - - - , > > > > > > , - - - , - - t 8 8 8 x w w x 8 8 8 u 8 8 y 8 8 8 9 - - - ",
"8 8 8 q > > > , - - r - - - 5.c c 5.1 1 1 i - - , - - - , > > > > > > , - - - , - - t 8 8 8 x w w x 8 8 8 u 8 8 y 8 8 8 9 - - - ",
"q q q i i i i p r r s d d d 0.q.q.0.s s s s r r p t t t d p p p i i i i > > > p t t d t t t v a a v c c c 5.c c v u u u a r r r ",
"$ $ $ * - - - , - - p c c c q.c c 7.1 1 1 i - - , w w w e 8 8 8 - - - * $ $ $ y 8 8 t - - - i - - p c c c q.c c 5.8 8 8 q - - - ",
"$ $ $ * - - - , - - p c c c q.c c 7.1 1 1 i - - , w w 0.d.d.d.d.s.s.s.p.- $ $ y 8 8 t - - - i - - p c c c q.c c 5.8 8 8 q - - - ",
"$ $ $ * - - - , - - p c c c q.c c 7.1 1 1 i - - , w w j.(.(.(.(.(.(.(./.3 $ $ y 8 8 t - - - r - - p c c c q.c c 5.8 8 8 q - - - ",
"y y y z s s s , : : i s s s 5.x x v r r r z a a c e.I.E.W.D.S.S.F.Q.Q.W.H.Z.i c f f c r r r 0.5.5.0.i i i 2.z z 2.p p p d a a a ",
"8 8 8 t 1 1 1 - $ $ > > > > a 8 8 y * * * t 8 8 y e.(.!.R.M.n.n.B.R.R.R.^.~.1 y 8 8 y - - - 5.c c 5.* * * p 1 1 p > > > q 8 8 8 ",
"8 8 8 t 1 1 1 - $ $ > > > > a 8 8 y * * * t 8 g >.m.W.S.n.n.n.n.n.n.n.n.U.T.l.$.8 8 y - - - 5.c c 5.* * * p 1 1 p > > > q 8 8 8 ",
"f f f z d d d i > > p p p p z a a z , , , z a l l.M.W.S.n.n.n.n.n.n.n.n.F.T.l.&.t t d r r r 7.5.5.7.1 r r 2.s s 2.p p p d a a a ",
"8 8 8 e 8 8 8 y 8 8 u 8 8 8 r - - r % % % , - < l.M.W.S.n.n.n.n.n.n.n.n.F.T.l.+.$ $ : * * * r - - r - - - r - - r w w w q - - - ",
"8 8 8 e 8 8 8 y 8 8 u 8 8 8 r - 1 g.r.r.R ! T W l.b.D.M.n.n.n.n.n.n.n.n.S.S.l.*.I R s.s.s.s.s.- - r - - - r - - r w w w q - - - ",
"8 8 8 e 8 8 8 y 8 8 u 8 8 8 r - k (.(.(.M.l.l.l.l.z.n.n.n.n.n.n.n.n.n.n.n.b.l.l.l.D.(.(.(.(.I.- - r - - - r - - r w w w q - - - ",
"5.5.5.v u u u 6.5.5.5.p p p <.C.G.!.!.!.Y.F.F.D.l.z.n.n.n.n.n.n.n.n.n.n.n.b.l.x.F.Y.!.!.!.!.W.P.h.7.a a a c y y z x x x x a a a ",
"c c c x 8 8 8 5.c c 4.> > > p ~.^.W.W.W.W.W.W.Y.l.z.n.n.n.n.n.n.n.n.n.n.n.n.l.b.R.W.W.W.W.W.W.(.K.6.w w w u 8 8 y w w w y w w w ",
"c c c x 8 8 8 5.c c 4.> > g.^.W.W.W.D.n.n.n.n.b.l.l.l.x.n.n.n.n.n.n.n.n.l.l.l.l.n.n.n.n.n.n.M.W.!./.c w w u 8 8 y w w w y w w w ",
"5.5.5.v y y y 6.5.5.5.i i j.(.W.R.Y.D.n.n.n.n.b.l.l.l.x.n.n.n.n.b.l.x.n.l.l.l.l.n.n.n.n.n.n.M.Y.W.(.9.u u c y y x y y y x y y y ",
"8 8 8 9 % % % y 8 8 u 8 8 h.(.W.U.n.n.n.n.n.n.n.n.x.l.x.n.n.n.n._   H n.l.l.b.n.n.n.n.n.n.n.n.n.F.(.c 8 8 x w w y - - - > - - - ",
"8 8 8 9 % % % y 8 8 u 8 8 h.(.W.U.n.n.n.n.n.n.n.n.x.l.l.x._ ) b. .b ( x.l.l.b.n.n.n.n.n.n.n.n.n.D.^.j 8 8 x w w y - - - > - - - ",
"8 8 8 9 % % % y 8 8 u 8 8 h.(.W.U.n.n.n.n.n.n.n.n.x.l.l.l.+ O x.l.J } l.l.l.b.n.n.n.n.n.n.n.n.n.S.W.j 8 8 x w w y - - - > - - - ",
"e e e y 9 9 9 f e e a 9 9 h.(.W.U.n.n.n.n.n.n.n.n. .B _ l.H S { { } O.l.Z C x.n.n.n.n.n.n.n.n.n.M.D.k 9 9 p q q p d d d i > > > ",
"8 8 8 e w w w y 8 8 t - - g.(.W.U.n.n.n.n.n.n.n.n./   H l.l.l.J P l.l.l.@ X z.n.n.n.n.n.n.n.n.n.n.n.2 - - r - - , c c c t - - - ",
"8 8 8 e w w w y 8 8 t - - u.W.W.U.n.n.n.n.n.n.n.n.z.=.' L | | J P l.[ L ..=.b.n.n.n.n.n.n.n.n.n.n.n.2 - - r - - , c c c t - - - ",
"8 8 8 e w w w y 8 8 t - - u.J.Y.F.M.n.n.n.n.n.n.n.b.b.[ J ( ( F K O.' J l.b.n.n.n.n.n.n.n.n.n.b.v.c.< - - r - - , c c c t - - - ",
"- - - 9 8 8 8 5.c c 5.- - - j ;.b.Q.F.n.n.n.n.n.n.z.| L G + o   . o N J ] ..b.n.n.n.n.n.n.n.b.l.E : - - - r - - , > > > q 8 8 8 ",
"- - - 9 8 8 8 5.c c 5.- - - j ^ %.F.D.S.M.n.n.x.) ( ` L G + X     X N J ` ` )  .n.n.n.n.n.b.z.W 4 : - - - r - - , > > > q 8 8 8 ",
"- - - 9 8 8 8 5.c c 5.- - - x w l l.M.W.S.n.n.=.  b J J J o         M J J F . # n.n.n.n.n.l.*.$ $ : - - - r - - , > > > q 8 8 8 ",
", , , r q q q 7.5.5.5.q q q d q p ! %.M.b.z.z.l.Z H [ [ [ + .     . C [ [ [ Z H z.z.z.z.z.! Q 7 7 i > > > i , , i q q q t q q q ",
"1 1 1 1 - - - 5.c c v 8 8 8 t - - r U l.l.l.l.l.l.l.l.l.l.n o   . o H l.l.l.l.l.l.l.l.l.l.; x w w x - - - i > > i 8 8 8 q > > > ",
"1 1 1 1 - - - 5.c c v 8 8 8 t - < @.-.b.b.b.b.:.n C ..' P D A ( H A G P O.O.m B b.b.b.b.b.@.#.w w x - - - i > > i 8 8 8 q > > > ",
"1 1 1 1 - - - 5.c c v 8 8 8 t - 2 l.x.n.n.n.n.=.  m | L J G J l.o.J G J O.X.X # n.n.n.n.n.l.-.w w x - - - i > > i 8 8 8 q > > > ",
"5.5.5.5.u u u p , , p , , , s ~.^.^.F.n.n.n.n.b.z.x.b.X.| J J l.o.J ` | z.b.|  .n.n.n.n.n.b.b.>.^ c u u u 8.5.5.q.y y y a , , , ",
"c c c x w w w , - - 1 * * * i ~.(.^.F.n.n.n.n.n.n.n.n. ./ L P l.O.L K / z.b...X.n.n.n.n.n.n.b.l.~ x w w w 5.c c 5.8 8 8 q - - - ",
"c c c x w w w , - - 1 * * * i ~.^.W.D.n.n.n.n.n.n.n.n.B    .l.l.l.l.B    .n.n.n.n.n.n.n.n.n.b.l.~ x w w w 5.c c 5.8 8 8 q - - - ",
"z z z v x x x s i i s 1 1 1 z J.Y.F.B.n.n.n.n.n.n.n.n.( C  .X.l.l.X.H C :.n.n.n.n.n.n.n.n.n.n.S.f.5.a a a 5.5.5.6.u u u d i i i ",
"- - - q w w w p 1 1 p - - - j v.n.n.n.n.n.n.n.n.n.n.n.n.n.....l.:.| k.n.n.n.n.n.n.n.n.n.n.n.M.(.K.7.> > > a w w u 8 8 8 q > > > ",
"- - - q w w w p 1 1 p - - - j v.n.n.n.n.n.n.n.n.n.n.n.n.n.z.z.l.l.z.b.n.n.n.n.n.n.n.n.n.n.n.n.D.f.5.> > > a w w u 8 8 8 q > > > ",
"- - - q w w w p 1 1 p - - - j v.n.n.n.n.n.n.n.n.n.n.n.n.n.n.b.l.l.n.n.n.n.n.n.n.n.n.n.n.n.n.n.n.i.5.> > > a w w u 8 8 8 q > > > ",
"r r r r : : : 0.7.7.q.a a a 2.~.W.n.n.n.n.n.n.n.n.n.n.n.n.l.;.3 Y l.x.n.n.n.n.n.n.n.n.n.n.n.M.^.V.z a a a v x x v p p p i : : : ",
"- - - - $ $ $ 5.c c 5.8 8 8 p P.H.M.m.n.n.n.n.n.n.n.n.b.b.;.@.= 5 *.k.b.n.n.n.n.n.n.n.n.n.M.A.I.s.t 8 8 8 x w w y > > > = $ $ $ ",
"- - - - $ $ $ 5.c c 5.8 8 8 r - k (.F.n.n.n.n.n.n.n.n.z.l.< - - - - E l.b.n.n.n.n.n.n.n.n.^.I.- - t 8 8 8 x w w y > > > = $ $ $ ",
"r r r i : : : 7.5.5.7.a a a z t 2.L.G.D.D.D.S.B.x.x.x.,.$.k t t p p Q %.c.x.x.n.D.D.D.D.F.P.V.r r d x x x 5.c c 5.i i i r : : : ",
"- - - > - - - , - - i 1 1 1 a 8 8 x h.(.(.(.W.Y.l.l.l.t.x 8 8 8 c c c x @.l.l.n.(.(.(.(./.5.i * * r w w w 5.c c 5.% % % = * * * ",
"- - - > - - - , - - i 1 1 1 a 8 8 x q.a.a.e.1.1.Y w.w.9.x 8 8 8 c c c x h 6 6 3.0.0.y.a.y.c i * * r w w w 5.c c 5.% % % = * * * ",
"- - - > - - - , - - i 1 1 1 a 8 8 x c c c d - - r c c c x 8 8 8 c c c x 8 8 8 y 8 8 x c c c i * * r w w w 5.c c 5.% % % = * * * ",
"y y y d i i i p r r s i i i q.5.5.0.z z z d r r s p p p t > > > d d d d r r r 5.5.5.5.p p p i : : i d d d 5.x x v , , , , : : : ",
"8 8 8 q > > > , - - r - - - 5.c c 7.1 1 1 i - * , - - - * $ $ $ > > > , * * * 5.c c z - - - : $ $ > 1 1 1 a 8 8 y - - - * $ $ $ ",
"8 8 8 q > > > , - - r - - - 5.c c 7.1 1 1 i - * , - - - * $ $ $ > > > , * * * 5.c c z - - - : $ $ > 1 1 1 a 8 8 y - - - * $ $ $ ",
"y y y a i i i i , , p , , , 0.5.5.0.p p p s , , i , , , > & & & r i i i , , , 7.5.5.5., , , , & & i p p p z y y x , , , > & & & ",
"8 8 8 x c c c s 1 1 p - - - r - - r - - - : $ $ * - - - 1 1 1 1 w w w y w w w & $ $ - % % % = $ $ : - - - y 8 8 y - - - > - - - ",
"8 8 8 x c c c s 1 1 p - - - r - - r - - - : $ $ * - - - 1 1 1 1 w w w y w w w & $ $ - % % % = $ $ : - - * y 8 8 y - - - > - - - ",
"8 8 8 x c c c s 1 1 p - - - r - - r - - - : $ $ * - - - 1 1 1 1 w w w y w w w & $ $ - % % % = $ $ : - - - y 8 8 y - - - > - - - ",
"e e e t 9 9 9 d t t d > > > i > > p q q q , % % : q q q a t t t t t t t e e e d t t p = = = t 7 7 p 1 1 1 v x x v > > > r 1 1 1 ",
"8 8 8 7 $ $ $ y 8 8 y - - - r - - r 8 8 8 > $ $ & w w w y w w w > > > q 8 8 8 5.c c z - - - a 8 8 a 1 1 1 5.c c 5.- - - 1 1 1 1 ",
"8 8 8 7 $ $ $ y 8 8 y - - - r - - r 8 8 8 > $ $ & w w w y w w w > > > q 8 8 8 5.c c z - - - a 8 8 a 1 1 1 5.c c 5.- - - 1 1 1 1 ",
"8 8 8 7 $ $ $ y 8 8 y - - - r - - r 8 8 8 > $ $ & w w w y w w w > > > q 8 8 8 5.c c z - - - a 8 8 a 1 1 1 5.c c 5.- - - 1 1 1 1 "
};
