/* XPM */
static char *e00e4f6cae1344e99592afc90aa6f0326lsew5H3clOXKjRN[] = {
/* columns rows colors chars-per-pixel */
"64 64 63 1 ",
"  c #72AF48",
". c #79B351",
"X c #7FB658",
"o c #82B759",
"O c #83B85B",
"+ c #86BA61",
"@ c #8ABB64",
"# c #8EBE69",
"$ c #90BE6B",
"% c #8BC25D",
"& c #92CA5C",
"* c #8EC264",
"= c #8FC069",
"- c #92C565",
"; c #95CC61",
": c #99CD67",
"> c #93C26E",
", c #98C76E",
"< c #97C96A",
"1 c #9ACD6C",
"2 c #9ED06E",
"3 c #95C272",
"4 c #99C575",
"5 c #9DCC72",
"6 c #9CC57A",
"7 c #9EC97A",
"8 c #9ECC78",
"9 c #9FCC78",
"0 c #9FC87E",
"q c #9FD070",
"w c #A0CB7A",
"e c #A0CC79",
"r c #A1CC7C",
"t c #A3CE7D",
"y c #A4CF7E",
"u c #A0D072",
"i c #A3D275",
"p c #A4D277",
"a c #A3D079",
"s c #A4D279",
"d c #A6D479",
"f c #A3D07C",
"g c #A5D17F",
"h c #A7D47C",
"j c #A8D57D",
"k c #A3CC82",
"l c #A5CB86",
"z c #A6D080",
"x c #A9D381",
"c c #AAD680",
"v c #ACD782",
"b c #ABD386",
"n c #ADD784",
"m c #ACD486",
"M c #AFD887",
"N c #AED48B",
"B c #AED68A",
"V c #AFD888",
"C c #B0D78B",
"Z c #B1D78D",
"A c #B1D98A",
"S c #B3D88F",
"D c #B3D890",
/* pixels */
"&&&-OOO1;;ddddAddg   8ddc$$$#OOO;;;%   2;;5Ooo>OO>&&&,OO#OOO-&&&",
"&&&-OOO1;;ddddAddg   8ddc$$$#OOO;;;%   1;;5Ooo>OO>&&&,OO#OOO-&&&",
"&&&-OOO1;;ddddAddg   8ddc$$$#OOO;;;%   1;;5Ooo>OO>&&&,OO#OOO-&&&",
":::<###u::jcccnuugoooeiij8884@@@111<OOOu::8@@@3@@4uuu7@@>---1:::",
"&&&-@@@1&&idddu&&5OOO5;;2ddd,OOO;;;:&&&1&&,OOO>OO4ddd7OO=&&&:&&&",
"&&&-@@@1&&idddu&&5OOO5;;2ddd,OOO;;;:&&&1&&,OOO>OO4ddd4OO=&&&:&&&",
"&&&-@@@1&&idddu&&5OOO5;;2ddd,OOO;;;:&&&1&&,OOO>OO4ddd7OO=&&&:&&&",
"11153333##4###BnnZ4446##3###33333333###3##4111h22h111p11i1114###",
"&&&-@@@#OO>OOOxddn$$$3OO#OOO#@@@@@@#OOO#OO,&&&i;;i&&&2&&1&&&*OOO",
"&&&-@@@#OO>OOOxddn$$$3OO#OOO#@@@@@@#OOO#OO,&&&i;;i&&&2&&1&&&*OOO",
"---33334>>6777SAAD6666>>4,,,74443333@@@4,,8,,,g44gsssvssj2224>>>",
"   oOOO#OO4dddAddB$$$3OO#;;;:&&&OOOo   1&&,OOO>OO4dddAddc&&&-OOO",
"   oOOO#OO4dddAddB$$$3OO#;;;:&&&OOOo   1&&,OOO>OO4dddAddc&&&-OOO",
"   oOOO#OO4dddAddB$$$3OO#;;;:&&&OOOo   1&&,OOO>OO4dddAddc&&&-OOO",
"111e666#++3666xuug>>>e55siiit6666666>>>sqqf>>>ZnnS333lttl4448555",
"&&&<$$$O  @@@@5&&1ooo,&&1;;;,$$$$$$$OOO1&&1OOOnddnooo4$$4@@@-&&&",
"&&&<$$$O  @@@@5&&1ooo,&&1;;;,$$$$$$$OOO1&&1OOOnddnooo4$$4@@@-&&&",
"qq5e8883@@4444y55t###w55aiiit6668888,,,8,,8>>>BxxB$>>k66k4448555",
"&&&:&&&1&&2&&&>OO>...#OO#;;;-ooo&&&:&&&O  +ooo>OO>OOO>OO>;;;-OOO",
"&&&:&&&1&&2&&&>OO>...#OO#;;;-ooo&&&:&&&O  +ooo>OO>OOO>OO>;;;-OOO",
"&&&:&&&1&&2&&&>OO>...#OO#;;;-ooo&&&:&&&O  +ooo>OO>OOO>OO>;;;-OOO",
"cccj222Mccn4446>>6###3++>vvvt$$$uuujccc8<<8333BxxB555a11euuui555",
"dddu&&&cddz@@@3OO>OOO+  Oddd4OOO;;;uddd1&&5@@@nddM;;;2&&1;;;1;;;",
"dddu&&&cddz@@@3OO>OOO+  Oddd4OOO;;;uddd1&&5@@@nddM;;;2&&1;;;1;;;",
"cccg111Mccb3336==6###3OO>ccc8###111sccci11e>>>ZccS222s11i111i111",
"&&&*...1&&2&&&q&&5OOOxddnOOO@OOO   oOOO1&&,ooo3@@4&&&u;;1OOO@OOO",
"&&&*...1&&2&&&q&&5OOOxddnOOO@OOO   oOOO1&&,ooo3@@4&&&u;;1OOO@OOO",
"&&&*...1&&2&&&q&&5OOOxddnOOO@OOO   oOOO1&&,ooo3@@4&&&u;;1OOO@OOO",
":::1***q::5***i::i@@@8,,e---3$$$OOO@@@@5::5@@@6>>0***4--47773@@@",
"&&&:;;;1&&,OOO5;;5OOO>OO>;;;,$$$OOO@ooO1&&,ooo6$$6OOO>OO#ddd,OOO",
"&&&:;;;1&&,OOO5;;5OOO>OO>;;;,$$$OOO@ooo1&&,ooo6$$6OOO>OO#ddd,OOO",
"&&&:;;;1&&,OOO5;;5OOO>OO>;;;,$$$OOO@ooo1&&,ooo6$$6OOO>OO#ddd,OOO",
"OOO*&&&nddxOOOi;;i;;;,OO#@@@#OOO   -ddd>OO3$$$@  +OOO>OO#@@@-&&&",
"OOO*&&&nddxOOOi;;i;;;,OO#@@@#OOO   -ddd>OO3$$$@  +OOO>OO#@@@-&&&",
"OOO*&&&nddxOOOi;;i;;;,OO#@@@#OOO   -ddd>OO3$$$@  +OOO>OO#@@@-&&&",
"###>---Bccn---8--8---4--4###>---ooo>444>OO3$$$4%%3@@@3##3---,---",
"$$$$OOOcddj&&&,OO>OOO,&&1OOO-&&&OOO@OOO+..@OOOi;;iOOO3@@3&&&-@@@",
"$$$$OOOcddj&&&,OO>OOO,&&1OOO-&&&OOO@OOO+..@OOOi;;iOOO3@@3&&&-@@@",
"$$$$OOOcddj&&&,OO>OOO,&&1OOO-&&&OOO@OOO+..@OOOi;;iOOO3@@3&&&-@@@",
"nnnc2224##4###6##61114##3###4111###wnnn4##3###e11s222VnnA1114###",
"dddp;;;#OO$ooo>OO>&&&>oo#OOO-&&&ooo,ddd>oo$OOO5&&u;;;cddc&&&-OOO",
"dddp;;;#OO$ooo>OO>&&&>oo#OOO-&&&ooo,ddd>oo$OOO5&&u;;;cddc&&&-OOO",
"yyyguuu6336$$$8,,8,,,4##3>>>7qqq333tjjj4$$6>>>cssn555nccM2227333",
"OOO-;;;4$$4OOO5&&1ooo@..+OOO-;;;$$$,&&&#oo$OOOnddn@@@5;;2&&&-@@@",
"OOO-;;;4$$4OOO5&&1ooo@..+OOO-;;;$$$,&&&#oo$OOOnddn@@@5;;2&&&-@@@",
"OOO-;;;4$$4OOO5&&5ooo@..+OOO-;;;$$$,&&&#oo$OOOnddn@@@5;;2&&&-@@@",
">>>>+++SBBA5550>>tnnn4OO#55543333336444a55cnnnl33t555jiig4443+++",
"OOOO   vddc&&&>OO3ddd*  X&&&*OOOOOO#@@@1&&sddd4OO,&&&u;;1@@@O   ",
"OOOO   vddc&&&>OO3ddd*  X&&&*OOOOOO#@@@1&&sddd4OO,&&&u;;1@@@O   ",
">>>3+++BxxB555t,,kAAA8++>ppp8,,,4448444sqqnAAAk>>0uuucddc333>+++",
"OOO@OOO#OO3$$$5&&pddd7OO>dddu&&&dddi&&&1&&iddd3oo>;;;vddv...Oooo",
"OOO@OOO#OO3$$$5&&pddd7OO>dddu&&&dddi&&&1&&iddd3oo>;;;vddv...Oooo",
"OOO@OOO#OO3$$$5&&pddd7OO>dddu&&&dddi&&&1&&iddd3oo>;;;vddv...Oooo",
"11173334>>6333CccSttt0>>6444,@@@8888>>>nccn4443++3888xiig####+++",
"&&&-@@@#OO>OOOnddB$$$3OO#OOOo   @@@#ooocddyOOO+  @$$$5&&1OOOo   ",
"&&&-@@@#OO>OOOnddB$$$3OO#OOOo   @@@#ooocddyOOO+  @$$$5&&1OOOo   ",
"11153333##4###SnnS4446##3###@XXX3333###Bvvb####XX3444t11i###@XXX",
"&&&uddd6$$4OOO>OO>OOO+  oOOO$$$$;;;1;;;X  O...O  +OOO1&&1OOO@OOO",
"&&&uddd6$$4OOO>OO>OOO+  oOOO$$$$;;;1;;;X  O...O  +OOO1&&1OOO@OOO",
"&&&uddd6$$4OOO>OO>OOO+  oOOO$$$$;;;1;;;X  O...O  +OOO1&&1OOO@OOO",
":::,***8<<7@@@3@@4---#..+---4,,,<<<,:::7,,4OOO,%%4$$$giih@@@>$$$",
"&&&%   1&&1OOO>OO>&&&@  X;;;1;;;@@@-&&&cddyOOO5&&5$$$xddcOOO$$$$",
"&&&%   1&&1OOO>OO>&&&@  X;;;1;;;@@@-&&&cddyOOO5&&5$$$xddcOOO$$$$",
"&&&%   1&&1OOO>OO>&&&@  X;;;1;;;@@@-&&&cddyOOO5&&5$$$xddcOOO$$$$"
};
