/* XPM */
static char *_3dc353917e54218abf9cc9b742fab95XblncBTQQQpasrBD[] = {
/* columns rows colors chars-per-pixel */
"64 64 188 2 ",
"   c #3F1B3F",
".  c #5B1C14",
"X  c #571C19",
"o  c #5F211D",
"O  c #622116",
"+  c #65231A",
"@  c #6D271A",
"#  c #742C1C",
"$  c #7A2F1E",
"%  c #7E311F",
"&  c #4F1B26",
"*  c #4F1E2F",
"=  c #461C35",
"-  c #4D1E33",
";  c #441C38",
":  c #5B2125",
">  c #5D3528",
",  c #4E2034",
"<  c #502031",
"1  c #6E2D2C",
"2  c #60372B",
"3  c #7B342B",
"4  c #6B313B",
"5  c #763538",
"6  c #7B393D",
"7  c #7C4E3F",
"8  c #6C6D3F",
"9  c #71793D",
"0  c #3E1B41",
"q  c #391C4A",
"w  c #2E1B5B",
"e  c #351C53",
"r  c #391F54",
"t  c #341E58",
"y  c #3B2156",
"u  c #3C2854",
"i  c #35235A",
"p  c #4F294F",
"a  c #532A4D",
"s  c #5A2D4A",
"d  c #4F314F",
"f  c #422353",
"g  c #4B2650",
"h  c #422D56",
"j  c #4A3656",
"k  c #553D52",
"l  c #602F48",
"z  c #643047",
"x  c #6A3344",
"c  c #683C46",
"v  c #713541",
"b  c #42415A",
"n  c #4F4459",
"m  c #554B58",
"M  c #4D5E52",
"N  c #744542",
"B  c #6F564B",
"V  c #7A5942",
"C  c #624951",
"Z  c #725951",
"A  c #596958",
"S  c #567350",
"D  c #737047",
"F  c #757B42",
"G  c #726F53",
"H  c #5A5161",
"J  c #5D646A",
"K  c #6D7A65",
"L  c #6E7873",
"P  c #717A76",
"I  c #823420",
"U  c #873925",
"Y  c #8C3924",
"T  c #8D3D2B",
"R  c #943E26",
"E  c #913E2B",
"W  c #833A33",
"Q  c #8B3F36",
"!  c #853D3A",
"~  c #8A3F38",
"^  c #964027",
"/  c #96402A",
"(  c #9C4329",
")  c #8E4036",
"_  c #8C4338",
"`  c #954334",
"'  c #9A4532",
"]  c #994A34",
"[  c #83533D",
"{  c #895A3B",
"}  c #A1462C",
"|  c #A74A2D",
" . c #A04730",
".. c #946237",
"X. c #956938",
"o. c #9A7136",
"O. c #A37A35",
"+. c #88694D",
"@. c #9B7948",
"#. c #758143",
"$. c #67845B",
"%. c #748657",
"&. c #7E9458",
"*. c #72AF48",
"=. c #7CB555",
"-. c #7A8961",
";. c #7F956E",
":. c #AD802F",
">. c #B2852E",
",. c #B68B2D",
"<. c #BA8C2B",
"1. c #BD962E",
"2. c #A98336",
"3. c #B48A31",
"4. c #C89A27",
"5. c #C39628",
"6. c #CA9C2A",
"7. c #C09A33",
"8. c #CEA12D",
"9. c #D1A42F",
"0. c #C9A53C",
"q. c #D2A531",
"w. c #D5A933",
"e. c #D8AC36",
"r. c #D4A63C",
"t. c #D6A83D",
"y. c #DAAE39",
"u. c #DDB23B",
"i. c #E1B63F",
"p. c #8A8B55",
"a. c #AB8643",
"s. c #B18C43",
"d. c #B69043",
"f. c #8DA655",
"g. c #9BA952",
"h. c #81B759",
"j. c #83B85B",
"k. c #9BB15A",
"l. c #BAAA4B",
"z. c #B5B14E",
"x. c #A5AD54",
"c. c #A2B55A",
"v. c #869668",
"b. c #939760",
"n. c #829072",
"m. c #88A160",
"M. c #96AD67",
"N. c #86B161",
"B. c #86BA61",
"V. c #8ABB63",
"C. c #8EBE6A",
"Z. c #98BF63",
"A. c #90BE6B",
"S. c #ACB966",
"D. c #C3A645",
"F. c #CAA644",
"G. c #CEA944",
"H. c #D7B448",
"J. c #E2B740",
"K. c #8BC25D",
"L. c #92CA5C",
"P. c #8EC264",
"I. c #8FC069",
"U. c #92C565",
"Y. c #96CC62",
"T. c #99CD67",
"R. c #93C26E",
"E. c #97C96B",
"W. c #9BCD6B",
"Q. c #9ED06E",
"!. c #95C272",
"~. c #99C576",
"^. c #9CCC73",
"/. c #9CC57B",
"(. c #9ECA79",
"). c #9FD070",
"_. c #A2CD7D",
"`. c #A2D174",
"'. c #A6D479",
"]. c #A9D57E",
"[. c #C9C668",
"{. c #A4CA85",
"}. c #ABD682",
"|. c #AFD789",
" X c #B1D78D",
".X c #B1D989",
"XX c #B3D88F",
"oX c #B3D890",
/* pixels */
"L.L.L.U.j.j.j.W.Y.Y.'.'.'.'..X'.'.].*.*.*.(.'.'.}.A.A.A.C.j.j.j.Y.Y.Y.K.*.*.*.W.Y.Y.^.j.h.h.R.j.j.R.L.L.L.E.j.j.C.j.j.j.U.L.L.L.",
"L.L.L.U.j.j.j.W.Y.Y.'.'.'.'..X'.'.].*.*.*.(.'.'.}.A.A.A.C.j.j.j.Y.Y.Y.K.*.*.*.W.Y.Y.^.j.h.h.R.j.j.R.L.L.L.E.j.j.C.j.j.j.U.L.L.L.",
"L.L.L.U.j.j.j.W.Y.Y.'.'.'.'..X'.'.].*.*.*.(.'.'.}.A.A.A.C.j.h.j j U.Y.K.*.*.*.W.Y.Y.^.j.h.h.R.j.j.R.L.L.L.E.j.j.C.j.j.j.U.L.L.L.",
"Y.Y.Y.E.C.C.C.`.T.T.].}.}.}.}.`.`.].h.h.h._.`.`.].(.(.(.~.V.N.w w U.W.E.j.j.j.`.T.T.(.V.V.V.!.V.V.~.`.`.`.(.V.V.R.U.U.U.E.Y.Y.Y.",
"L.L.L.U.V.V.V.W.L.L.`.'.'.'.`.L.L.^.j.j.j.^.Y.Y.Q.'.'.'.M.h h F.F.G.G.Z.L.L.L.W.L.L.E.j.j.j.R.j.j.~.'.'.'.(.j.j.I.L.L.L.Y.L.L.L.",
"L.L.L.U.V.V.V.W.L.L.`.'.'.'.`.L.L.^.j.j.j.^.Y.Y.Q.'.'.'.M.w t J.J.J.J.Z.L.L.L.W.L.L.E.j.j.j.R.j.j.~.'.'.'.(.j.j.I.L.L.L.Y.L.L.L.",
"L.L.L.U.V.V.V.W.L.L.`.'.'.'.`.L.L.^.j.j.j.^.Y.Y.m.j j k m s.s.8.8.i.J.7.1.D.D.k.L.L.E.j.j.j.R.j.j.~.'.'.'.(.j.j.I.L.L.L.Y.L.L.L.",
"W.W.W.^.!.!.!.!.C.C.~.C.C.C.|.}.}. X~.~.~./.C.C.-.w w w u J.i.4.4.i.J.6.4.u.J.M.C.C.~.W.W.W.].Q.Q.].W.W.W.`.W.W.`.W.W.W.~.C.C.C.",
"L.L.L.U.V.V.V.C.j.j.R.j.j.j.}.'.'.}.A.A.A.!.%.j C O.2.s.d.J.i.y.y.i.J.u.y.i.J.D.l.f.E.L.L.L.`.Y.Y.`.L.L.L.Q.L.L.W.L.L.L.P.j.j.j.",
"L.L.L.U.V.V.V.C.j.j.R.j.j.j.}.'.'.}.A.A.A.!.%.w k 4.6.J.J.J.J.J.J.J.J.J.J.J.J.J.J.f.E.L.L.L.`.Y.Y.`.L.L.L.Q.L.L.W.L.L.L.P.j.j.j.",
"U.U.U.!.!.!.!.~.R.R./.(.(.(.XX.X.XoX;.m m m Z @.a.4.6.J.i.q.q.q.q.i.J.q.q.u.J.J.J.D.l.l.l.c.].~.~.].'.'.'.}.'.'.].Q.Q.Q.~.R.R.R.",
"*.*.*.h.j.j.j.C.j.j.~.'.'.'..X'.'.|.K w w w C J.u.4.6.J.u.4.4.4.4.i.J.6.4.u.J.J.J.J.J.J.J.x.!.j.j.~.'.'.'..X'.'.}.L.L.L.U.j.j.j.",
"*.*.*.h.j.j.j.C.j.j.~.'.'.'..X'.v.H Z X.@.@.a.q.q.e.y.J.i.e.e.e.e.i.J.e.e.i.J.w.q.u.J.w.q.0.l.g.j.~.'.'.'..X'.'.}.L.L.L.U.j.j.j.",
"*.*.*.h.j.j.j.C.j.j.~.'.'.'..X'.K w B 4.9.J.y.4.8.J.J.J.J.J.J.J.J.J.J.J.J.J.J.8.4.y.J.9.4.w.J.z.j.~.'.'.'..X'.'.}.L.L.L.U.j.j.j.",
"W.W.W._./././.C.B.B.!.~.n.L P L G V O.w.w.w.w.w.w.w.w.w.w.J.J.J.J.w.w.w.w.w.w.w.w.w.w.w.w.u.J.H.[.[.[.S.!.{._._.{.~.~.~.(.^.^.^.",
"L.L.L.E.A.A.A.j.*.*.V.V.m w w w V 4.q.J.e.4.8.J.u.4.4.4.6.J.J.J.J.4.4.4.4.4.4.u.J.8.4.e.J.J.J.J.J.J.J.l.h.~.A.A.~.V.V.V.U.L.L.L.",
"L.L.L.E.A.A.A.j.*.*.K A Z +.+.+.2.4.q.J.u.w.w.w.w.w.w.w.w.J.i.w.w.w.w.4.4.q.w.w.w.6.4.e.J.y.w.u.J.u.w.0.z.S.A.A.~.V.V.V.U.L.L.L.",
").).)._.(.(.(.!.V.P.n w @.J.J.J.w.4.q.J.J.J.y.4.8.J.J.J.J.J.i.4.4.i.J.6.4.u.J.8.4.4.4.e.J.q.4.w.J.w.4.q.J.l.~.~.{.~.~.~.(.^.^.^.",
"L.L.L.Y.L.L.%.-.%.%.Z Z a.e.u.J.y.q.w.e.e.e.q.4.6.e.y.J.J.J.i.q.q.e.e.q.q.w.e.6.4.4.4.q.e.w.q.y.J.y.q.e.J.D.g.g.x.c.Y.Y.U.j.j.j.",
"L.L.L.Y.L.L.j w w w a.J.q.4.w.J.J.J.w.4.4.4.4.4.4.4.6.J.J.J.J.J.J.4.4.u.J.6.4.4.4.4.4.4.4.w.J.J.J.J.J.J.J.J.J.J.J.D.Y.Y.U.j.j.j.",
"L.L.L.Y.&.&.C k k k a.y.w.8.w.y.u.J.y.8.6.4.4.4.4.4.6.y.y.y.y.J.J.8.8.y.y.6.4.4.4.4.4.6.8.w.y.y.y.u.J.u.y.y.y.u.J.G.k.k.U.j.j.j.",
"}.}.}.].h w 2.4.y.J.9.4.w.J.w.4.w.J.J.J.e.4.4.4.4.4.4.4.4.4.4.J.J.J.J.6.4.4.4.4.4.4.4.e.J.q.4.4.4.w.J.w.4.4.4.8.J.J.J.G.`.^.^.^.",
"v.v.v.v.C k 3.4.y.J.w.8.y.J.w.4.q.y.y.y.w.4.6.8.6.4.4.8.8.4.4.y.y.i.J.6.4.8.8.8.8.8.8.w.y.w.8.8.8.w.y.w.8.8.8.q.y.u.J.G.k.k.k.k.",
"t w w w 3.4.4.4.y.J.J.J.J.J.w.4.4.4.4.4.4.4.8.J.u.4.6.J.u.4.4.4.4.i.J.6.4.u.J.J.J.J.J.9.4.w.J.J.J.w.4.q.J.J.J.y.4.8.J.J.J.J.J.J.",
"h h u u 3.4.4.4.q.t.t.t.t.t.9.4.4.4.4.4.4.4.6.t.w.4.6.t.r.4.4.4.4.r.t.4.4.r.r.t.t.t.r.6.4.q.t.t.t.q.4.6.t.t.r.r.4.6.t.r.0.0.G.G.",
"L.L.y w >.4.N x O.4.[ x o.4...x ..4.o.x [ 4.4.4.:.w d 4.<.w t x x 5.4.4.4.d w :.4.C w o.4.4.4...x ..4.4.4.o.w y x N 4.4.4.1.j.j.",
"L.L.h u O.,.c z o.,.N z ..,.{ z { ,...z 7 ,.,.<.O.t d <.>.t t z z >.,.<.<.d t O.<.c t ..<.,.,.{ z { ,.,.<.X.t f z N ,.,.,.3.j.j.",
"L.L.L.P.t w t w s x f w a x g w g x a w f x s w y x l w t x x w w x x t w l x y w s x f w a x g w g x a w f x s w y x x V.j.j.j.",
"Y.Y.Y.E.t w t w s x f w a x g w g x a w f x s w y x l w t x x w w x x t w l x y w s x f w a x g w g x a w f x s w y x x !.V.V.V.",
"L.L.L.T.t w ! | 6 x ` | ! x Q | ~ x ! | ` x 6 | ' x v | } x x | | x x } | v x ' | 6 x ` | ! x ~ | Q x ! | ` x 6 | ' x x E.j.j.j.",
"L.L.L.T.t w ! | 6 x ` | ! x Q | ~ x ! | ` x 6 | ' x v | } x x | | x x } | v x ' | 6 x ` | ! x ~ | Q x ! | ` x 6 | ' x x E.j.j.j.",
"L.L.L.T.y w z x ` | | | | | ! x ~ | | | | | ` x 6 | | | | | | x x | | | | | | 6 x ` | | | | | ~ x ! | | | | | ` x 6 | ] E.j.j.j.",
"j.j.j.P.y w z x ` | | | | | ! x ! | | | | | ` x 6 | | | | | | x x | | | | | | 6 x ` | | | | | ! x ! | | | | | ` x 6 | ] U.L.L.L.",
"j.j.j.P.t w ! } 6 v ` | ! v Q } ~ v ! | ` v 6 } ` v 6 | } v v } } v v } | 6 v ` } 6 v ` | ! v ~ } Q v ! | ` v 6 } ' v v U.L.L.L.",
"j.j.j.P.t w ! | 6 x ` | ! x Q | ~ x ! | ` x 6 | ' x v | } x x | | x x } | v x ' | 6 x ` | ! x ~ | Q x ! | ` x 6 | ' x x U.L.L.L.",
"C.C.C.R.y w ) |  .' } | } ' } | } ' } | } ' } | ^ o o , < o o , , o o < , q t W | } ' } | } ' } | } ' } | } '  .| | ' ` E.U.U.U.",
"A.A.A.A.y w ) | | | | | | | | | | | | | | | | | R . X ; = . . ; ; . . = ; e w W | | | | | | | | | | | | | | | | | | | ] U.V.V.V.",
"A.A.A.A.r w Q | | | | | | | ^ Y % @ @ @ I | | | W q 0 ; = . . ; ; q q = ; & & E | % @ R | | | | | | | ( Y Y Y R | | | ] U.V.V.V.",
"A.A.A.A.r w Q | | | | | | | R I # . . . # | | | W w e ; = . . ; ; w w ; ; X . ^ | # . Y | | | | | | | ( I I I Y | | | ] U.V.V.V.",
"}.}.}.}.y w Q | | | | | | | } ( ( R R R ( | | | E & & ; = . . ; ; & & = ; X . ^ | # . Y | | | | | | | } ( ( ( ( | } Y T ~.C.C.C.",
"'.'.'.`.y w ) | | | | | | | | | | | | | | | | | R . X ; = . . ; ; . . = ; X . ^ | # . Y | | | | | | | | | | | | | ( I 3 U.j.j.j.",
"'.'.'.`.y w Q | I # # # R | ( Y ( | | | | | | | R . X ; = . . ; ; . . = ; X . ^ | I # R | ( Y ( | ( Y ( | | | ( # % ( / U.j.j.j.",
"_._._.].r w Q | @ . . . Y | R I R | | | | | | | R . X ; = . . ; ; . . = ; X . ^ | Y I ( | R I R | R I R | | | R . @ | ] (.!.!.!.",
"j.j.j.U.y w 1 # $ # I Y ( | ( ^ ( | ( R ( | | | R . X ; = 0   ; ; . . = ; ; 0 T | ( ^ } | ( ^ ( | ( ^ ( | | | R . @ | ] U.V.V.V.",
"j.j.j.U.y w : . $ I ( | | | | | | | ^ I Y | | | R . X ; ; w w ; ; . . = ; e w W | | | | | | | | | | | | | | | R . @ | ] U.V.V.V.",
"j.j.j.U.y w : . I R R R ( | | | ( R R R ( | | | R . X ; = ; ; ; ; ; ; = ; ; ; T | ( R } | R I R | ( R ( | | | ^ @ $ | ] U.V.V.V.",
"R.R.R.R.y w : . R | Y I ( | | | R I R | | | | | R . X ; = . . ; ; w w ; ; X . ^ | Y I ( | $ . I | R I R | | | ( I Y | ] !.B.B.B.",
"j.j.j.j.y w 1 I ( | ( R ( | | | Y @ I | } ^ ( | R . X ; = . . ; ; w w ; ; X . ^ | ( R R ^ # . I | ( R ( | } ^ R R ^ | ] j.*.*.*.",
"j.j.j.j.y w ) | | | | | | | | | I . $ | ( I Y | R . X ; = . . ; ; w w ; ; X . ^ | | | Y I @ . I | | | | | ( I Y | | | ] j.*.*.*.",
"R.R.R.!.y w W ( } | | | | | | | I . $ | ( Y ^ | R . X ; = . . ; ;   0 = ; X . ^ | R Y % # $ # R | | | | | ( Y R ( ( | ] R.B.B.B.",
"j.j.j.V.r w 1 I ( | | | | | | | I . $ | | | | | R . X ; = . . ; ; . . = ; X . ^ | # . . . I | | | | | | | | | ( I Y | ] j.h.h.h.",
"j.j.j.V.r w 3 Y } | | | } ( } | Y @ I | } ( ( | E & & ; = . . ; ; . . = ; X . ^ | % @ @ @ Y | | | } ( } | | | } Y R | ] j.h.h.h.",
"j.j.j.V.y w ) | | | | | R I R | | | | | ( I Y | W w e ; = . . ; ; . . = ; X . ^ | | | | | | | | | R I R | | | | | | | ] j.h.h.h.",
"W.W.W.(.y w ! ' ( ( ' ' T Y E ' ' | } ' / Y T ' 5 q 0 ; = & & ; ; . . = ; X . T ' } | ' ' ( ( ( ' E Y T ' ' | } ' ' | ] C.B.B.B.",
"L.L.L.U.y w z x 3 I 5 x ) | ! x ! | ) x 6 | ` x 4 . X ; ; w w ; ; . . = ; X . 4 x ` | 6 x 3 I 5 x ! | ) x 6 | ` x 6 | ] h.*.*.*.",
"L.L.L.U.y w z x 3 3 5 x ! ` 6 x 6 ` ! x 6 ` ~ x 4 . X ; ; w w ; ; . . = ; X . 4 x ~ ` 6 x 5 3 5 x 6 ` ! x 6 ` ~ x v ` _ h.*.*.*.",
"W.W.W.^.t w s x a g l x s g s x s g s x l g a x 4 . X ; ; w w ; ; . . = ; X . 4 x a g l x s g s x s g s x l g a x z g p V.=.=.=.",
"L.L.L.`.t t s x a p l x s p s x s p s x l p a x 4 O + - - e q - - + O * - + O 4 x a p l x s p s x s p s x l p a x z p a V.j.j.j.",
"L.L.L.`.i w ;./.u w w w A j.J w A R.A w b B.S w g | ( . O I I I I I I O . ( | g w S j.b w A j.M w J j.A w w w u W.$.w i V.j.j.j.",
"L.L.L.`.i w ;./.u w w w A j.J w A R.A w b B.S w g | ( . O I I I I I I O . ( | g w S j.b w A j.M w J j.A w w w u W.$.w i V.j.j.j.",
"Y.Y.Y.E.P.P.P.(.> . . . D V.!.V.V.~.U.U.U.C.=.=.F . . . . . . . . . . . . . . p.E.E.~.j.j.j.E.K.K.~.A.D . . . 2 ].V.V.V.R.A.A.A.",
"L.L.L.K.*.*.*.W.> . . . 8 j.R.j.j.R.L.L.L.V.*.*.9 . . . . . . . . . . . . . . p.'.'._.j.j.j.^.L.L.^.A.D . . . 2 }.j.j.j.A.A.A.A.",
"L.L.L.K.*.*.*.W.> . . . 8 j.R.j.j.R.L.L.L.V.*.*.#.I U | ( . . | | I I } | U I b.'.'._.j.j.j.^.L.L.^.A.D . . . 2 }.j.j.j.A.A.A.A.",
"L.L.L.K.*.*.*.W.> . . . 8 j.R.j.j.R.L.L.L.V.*.*.#.I I | ( . . | | I I } | I I b.'.'._.j.j.j.^.L.L.^.A.D . . . 2 }.j.j.j.A.A.A.A."
};
