/* XPM */
static char *fa909e8f51bf4a32a8c3fd94de6c7e3fOxTrMv8dnQxr0Nk4[] = {
/* columns rows colors chars-per-pixel */
"64 64 200 2 ",
"   c #3B122A",
".  c #570A2E",
"X  c #4A1D28",
"o  c #501531",
"O  c #6C0A36",
"+  c #730434",
"@  c #6A1A3E",
"#  c #77193A",
"$  c #43262F",
"%  c #472A31",
"&  c #513537",
"*  c #7B223F",
"=  c #613D3D",
"-  c #58583B",
";  c #73503D",
":  c #4E2748",
">  c #5A3448",
",  c #5E394C",
"<  c #473E52",
"1  c #682141",
"2  c #692642",
"3  c #782540",
"4  c #653548",
"5  c #603A4C",
"6  c #753F67",
"7  c #30465A",
"8  c #39535A",
"9  c #364C63",
"0  c #3C536C",
"q  c #4F4F4D",
"w  c #66454D",
"e  c #774946",
"r  c #734B4B",
"t  c #655D4C",
"y  c #7B5948",
"u  c #7B5752",
"i  c #7B5A57",
"p  c #4B6B5A",
"a  c #546B52",
"s  c #656847",
"d  c #786E4E",
"f  c #677547",
"g  c #445A6D",
"h  c #77416A",
"j  c #526879",
"k  c #892230",
"l  c #965615",
"z  c #B34F1B",
"x  c #BD761F",
"c  c #9D4E39",
"v  c #A74C22",
"b  c #AB573B",
"n  c #90702F",
"m  c #AC702F",
"M  c #BC713D",
"N  c #C56315",
"B  c #C0781D",
"V  c #C47A3E",
"C  c #81194A",
"Z  c #882742",
"A  c #8D3244",
"S  c #83594D",
"D  c #8B5B4F",
"F  c #83674A",
"G  c #896A52",
"H  c #877656",
"J  c #927450",
"K  c #B27856",
"L  c #8F626E",
"P  c #5D8559",
"I  c #6F8A4D",
"U  c #61895A",
"Y  c #6A955A",
"T  c #7B9E57",
"R  c #72AF48",
"E  c #7AAB59",
"W  c #79B351",
"Q  c #7EB559",
"!  c #658964",
"~  c #759266",
"^  c #729769",
"/  c #DD8B0F",
"(  c #D38E12",
")  c #EC9608",
"_  c #EE9808",
"`  c #F09305",
"'  c #FFA100",
"]  c #FBB01D",
"[  c #D59331",
"{  c #FBB221",
"}  c #FAB62A",
"|  c #F3B332",
" . c #F9C03E",
".. c #869A5F",
"X. c #A2865C",
"o. c #81A755",
"O. c #86B155",
"+. c #81B759",
"@. c #83B85B",
"#. c #90BD59",
"$. c #8B9166",
"%. c #AF9563",
"&. c #8AA962",
"*. c #89B366",
"=. c #86BA61",
"-. c #8ABB63",
";. c #8EBE69",
":. c #92B865",
">. c #95B26F",
",. c #90BE6B",
"<. c #A2B476",
"1. c #E59255",
"2. c #D8A747",
"3. c #E0AF42",
"4. c #EAB845",
"5. c #CA8C6D",
"6. c #E1907B",
"7. c #D4BD74",
"8. c #8BC25D",
"9. c #92CA5C",
"0. c #8EC363",
"q. c #8FC069",
"w. c #92C565",
"e. c #95CC61",
"r. c #99CD67",
"t. c #93C26E",
"y. c #98C56A",
"u. c #9ACD6C",
"i. c #9ED06E",
"p. c #95C272",
"a. c #99C576",
"s. c #9CCC73",
"d. c #9CC57B",
"f. c #9FCB79",
"g. c #9FD070",
"h. c #A7C37D",
"j. c #A2CE7D",
"k. c #A2D173",
"l. c #A6D479",
"z. c #A9D57E",
"x. c #F9C546",
"c. c #FAD35F",
"v. c #D7C377",
"b. c #FAD765",
"n. c #FADB6E",
"m. c #E3D07D",
"M. c #F2D778",
"N. c #FBE37C",
"B. c #4B6382",
"V. c #526C87",
"C. c #526B8C",
"Z. c #556D91",
"A. c #5C7494",
"S. c #667D8C",
"D. c #647A96",
"F. c #657EA7",
"G. c #9D648F",
"H. c #A56998",
"J. c #B774AE",
"K. c #C47EBB",
"L. c #778C9A",
"P. c #6982AE",
"I. c #768AA8",
"U. c #7D92A0",
"Y. c #6D87B4",
"T. c #6F89B7",
"R. c #708AB8",
"E. c #7D95BE",
"W. c #899EAB",
"Q. c #C89F8C",
"!. c #DE9E96",
"~. c #E6B598",
"^. c #D89BBB",
"/. c #A6CC86",
"(. c #ABD583",
"). c #AED58A",
"_. c #B1D78E",
"`. c #B1D98A",
"'. c #F0DA87",
"]. c #FCE681",
"[. c #FDEB89",
"{. c #E9C0A3",
"}. c #869EC5",
"|. c #8EA2CA",
" X c #91A4CA",
".X c #92A7D1",
"XX c #9FB3DB",
"oX c #A2B5DD",
"OX c #A6BCD8",
"+X c #A9BBE3",
"@X c #CE86C7",
"#X c #CF87C8",
"$X c #D087C8",
"%X c #AEC4DC",
"&X c #BCD0E7",
"*X c #C5D9ED",
"=X c #CFE4F1",
"-X c #D1E5F1",
";X c #D4E9F2",
":X c #DAEFF5",
/* pixels */
"9.9.9.w.@.@.@.u.e.e.l.l.l.l.`.l.l.z.R R R f.l.l.(.,.,.,.;.@.@.@.e.e.e.8.R R R u.e.e.s.@.+.+.t.@.@.t.9.9.9.y.@.@.;.@.@.@.w.9.9.9.",
"9.9.9.w.@.@.@.u.e.e.l.l.l.l.`.l.l.z.R R R f.l.l.(.,.,.,.;.@.@.@.e.e.e.8.R R R u.e.e.s.@.+.+.t.@.@.t.9.9.9.y.@.@.;.@.@.@.w.9.9.9.",
"9.9.9.w.@.@.@.u.e.e.l.l.l.l.`.l.l.z.R R R f.l.l.(.,.,.,.;.@.@.@.e.e.e.8.R R R u.e.e.s.@.+.+.t.@.@.t.9.9.9.y.@.@.;.@.@.@.w.9.9.9.",
"e.e.e.y.;.;.;.k.r.r.z.(.(.(.(.k.k.z.+.+.+.j.k.k.z.f.f.f.a.-.-.-.u.u.u.y.@.@.@.k.r.r.f.-.-.-.p.-.-.a.k.k.k.f.-.-.t.w.w.w.u.e.e.e.",
"9.9.9.w.-.-.-.u.9.9.k.l.l.l.k.9.9.s.@.@.@.s.e.e.i.l.l.l.y.@.@.@.e.e.e.r.9.9.9.u.9.9.u.@.@.@.t.@.@.a.l.l.l.f.@.@.q.9.9.9.e.9.9.9.",
"9.9.9.w.-.-.-.u.9.9.k.l.l.l.k.9.9.s.@.@.@.s.e.e.i.l.l.l.y.@.@.@.e.e.e.r.9.9.9.u.9.9.u.@.@.@.t.@.@.a.l.l.l.a.@.@.q.9.9.9.e.9.9.9.",
"9.9.9.w.-.-.-.u.9.9.k.l.l.l.k.9.9.s.@.@.@.s.e.e.i.l.l.l.y.@.@.@.e.e.e.r.9.9.9.u.9.9.u.@.@.@.t.@.@.a.l.l.l.f.@.@.q.9.9.9.e.9.9.9.",
"u.u.u.s.p.p.p.p.;.;.a.;.;.;.).(.(._.a.a.a.d.;.;.p.;.;.;.p.p.p.p.p.p.p.p.;.;.;.p.;.;.a.u.u.u.z.i.i.z.u.u.u.k.u.u.k.u.u.u.a.;.;.;.",
"9.9.9.w.-.-.-.;.@.@.t.@.@.@.(.l.l.(.,.,.,.p.@.@.;.@.@.@.;.-.-.-.-.-.-.;.@.@.@.;.@.@.y.9.9.9.k.e.e.k.9.9.9.i.9.9.u.9.9.9.0.@.@.@.",
"9.9.9.w.-.-.-.;.@.@.t.@.@.@.(.l.l.(.,.,.^ ^ Y Y ^ Y Y Y ^ Y Y Y =.-.-.;.@.@.@.;.+.@.y.9.9.9.k.e.e.k.9.9.9.u.9.9.u.9.9.9.0.@.@.@.",
"w.w.w.p.p.p.p.a.t.t.d.f.f.f._.`.`._.d.d.p 7 7 7 7 7 7 7 7 7 7 7 *.p.p.p.-.-.-.a.y.y.f.u.u.u.z.s.s.z.l.l.l.(.l.l.z.i.i.i.s.t.t.t.",
"R R R +.@.@.@.;.@.@.a.l.l.l.`.l.l.).,.,.p 7 7 7 7 7 7 7 7 7 7 7 E @.@.+.R R R u.9.9.u.@.@.@.t.@.@.a.l.l.l.`.l.l.(.9.9.9.w.@.@.@.",
"R R R +.@.@.@.;.U P ! ^ ^ ^ ^ ^ ^ ^ ! ! S.D.D.L.U.U.U.U.U.U.U.U.! P P Q R R R u.9.9.u.@.@.@.t.@.@.a.l.l.l.`.l.l.(.9.9.9.w.@.@.@.",
"R R R +.@.@.@.;.8 7 7 7 7 7 7 7 7 7 7 7 |.+X+X-X:X:X:X:X:X:X:X:Xg 7 7 E R R R u.9.9.u.@.@.@.t.@.@.a.l.l.l.`.l.l.(.9.9.9.w.@.@.@.",
"u.u.u.j.d.d.d.;.8 7 7 7 7 7 7 7 7 7 7 7 |.+X+X-X:X:X:X:X:X:X:X:Xg 7 7 >.t.t.t.l.g.g.l.t.t.t._.(.(._.p.p.p./.j.j./.a.a.a.f.s.s.s.",
"9.9.9.y.,.^ ! P j B.B.D.D.D.L.L.L.L.L.L.I.I.I.%X*X*X;X:X:X:X:X:XA.B.B.! U U Q u.9.9.u.@.@.@.(.l.l.(.+.+.+.a.,.,.a.-.-.-.w.9.9.9.",
"9.9.9.y.,.p 7 7 P.R.R.oX+X+X;X:X:X:X:X:Xj 7 7  X+X+X-X:X:X:X:X:XE.R.T.9 7 7 E u.9.9.u.@.@.@.(.l.l.(.+.+.+.a.,.,.a.-.-.-.w.9.9.9.",
"g.g.g.j.f.p 7 7 P.R.R.oX+X+X;X:X:X:X:X:Xj 7 7  X+X+X-X:X:X:X:X:XE.R.T.9 7 7 ;.f.u.u.f.t.p.p.).(.(.).,.t.t./.d.d./.a.a.a.f.s.s.s.",
"9.9.9.e.9.p 7 7 P.R.R.oX+X+X;X:X:X:X:X:XW.L.L.I.I.I.&X*X*X;X:X:XE.R.T.9 7 7 @.@.R f f f E +.t.@.@.t.I f f *.@.@.t.e.e.e.w.@.@.@.",
"9.9.9.e.9.p 7 7 P.R.R.oX+X+X;X:X:X:X:X:X:X:X:Xj 7 7  X+X+X-X:X:XE.R.T.9 7 7 @.@.R $     T +.t.@.+.t.&     T @.@.t.e.e.e.w.@.@.@.",
"9.9.9.e.9.p 7 7 P.R.R.oX+X+X;X:X:X:X:X:X:X:X:Xj 7 7  X+X+X-X:X:XE.R.T.9 7 7 @.@.R $     T +.t.@.+.t.&     T @.@.t.e.e.e.w.@.@.@.",
"(.(.(.z.i.p 7 7 P.R.R. X.X.X&X*X*X;X:X:X:X:X:Xj 7 7 E..X.X&X*X*XE.R.T.9 7 7 ~ I I s t - *.p.).$.~ $.s t t >.u.u.j.k.k.k.k.s.s.s.",
"l.l.l.k.9.p 7 7 P.R.R.R.R.R.oX+X+X-X:X:X:X:X:Xj 7 7 F.R.R.XX+X+XR.R.R.9 7 7       O.s.-.-.-.(.&     o.e.e.i.9.9.u.e.e.e.u.e.e.e.",
"l.l.l.k.9.p 7 7 P.R.R.R.R.R.oX+X+X-X:X:X:X:X:Xj 7 7 F.R.R.XX+X+XR.R.R.9 7 7       O.s.-.-.-.(.&     o.e.e.i.9.9.u.e.e.e.u.e.e.e.",
"(.(.(.z.u.p 7 7 P.R.R.R.R.R.|..X.X&X*X*X;X:X:XD.j j C.Z.Z.}..X.XA.Z.Z.< : :       d H H H H X.%     &.i.i.l.u.u.k.u.u.u.k.u.u.u.",
"9.9.9.0.W p 7 7 P.R.R.R.R.R.R.R.T.oX+X+X=X:X:X}.R.T.0 7 7 F.R.T.9 7 7 O + +       O + + + + + o     o.9.9.k.e.e.u.@.@.@.-.@.@.@.",
"9.9.9.0.W p 7 7 P.R.R.R.R.R.R.R.T.oX+X+X=X:X:X}.R.T.0 7 7 F.R.T.9 7 7 O + +       O + + + + + o     o.9.9.k.e.e.u.@.@.@.-.@.@.@.",
"9.9.9.0.W P p a V.C.C.Y.R.R.R.R.T.|..X.XOX%X%XD.C.C.9 7 7 B.C.C.q q q v v v X     c b b b b b G G G H H H y.e.e.u.@.@.@.-.@.@.@.",
"e.e.e.u.0.0.0.g.8 7 7 P.R.R.R.R.R.R.R.R.R.R.T.0 7 7 7 7 7 7 7 7 , 5 5 ) ' ' X     3.x.x.x.x.x.N.[.[.A + + &.w.w.a.f.f.f.p.-.-.-.",
"9.9.9.r.e.e.e.i.8 7 7 P.R.R.R.R.R.R.R.R.R.R.T.0 7 7 7 7 7 7 7 7 , 5 5 ) ' ' X     3.x.x.x.x.x.N.[.[.A + + ..@.@.;.l.l.l.y.@.@.@.",
"9.9.9.r.e.e.e.i.U P ! V.C.C.C.C.C.C.C.C.C.C.C.F n n q < < < < < , 5 5 ) ' ' l l l | x.x.c.b.b.].[.[.5.K K G d d *.l.l.l.y.@.@.@.",
"9.9.9.r.e.e.e.i.9.9.u.8 7 7 7 7 7 7 7 7 7 7 7 ( ' ' ; 5 5 5 5 5 5 5 5 ) ' ' ' ' '  .x.x.N.[.[.[.[.[.[.[.[.A + + &.l.l.l.y.@.@.@.",
"@.@.@.0.9.9.9.(.l.l.(.8 7 7 7 7 7 7 7 7 7 7 7 ( ' ' ; 5 5 5 5 5 5 5 5 ) ' ' ' ' '  .x.x.N.[.[.[.[.[.[.[.[.A + + &.-.-.-.w.9.9.9.",
"@.@.@.0.9.9.9.(.l.l.(.> : : < < < < < < n n n 4.x.x.y 5 5 5 5 5 5 5 5 ) ' ' { { { c.b.b.].[.[.[.[.[.[.[.[.5.K K G y y *.w.9.9.9.",
"@.@.@.0.9.9.9.(.l.l.(.# + + 4 5 5 5 5 5 / ' ' n.[.[.i 5 5 5 5 5 5 5 5 ) ' '  .x.x.].[.[.[.[.[.[.[.[.[.[.[.[.[.[.Z + + &.w.9.9.9.",
";.;.;.t.w.w.w.).(.(.(.# + + 4 5 5 5 5 5 / ' ' n.[.[.i 5 5 5 5 5 5 5 5 ) ' '  .x.x.].[.[.[.[.[.[.[.[.[.[.[.[.[.[.Z + + :.u.w.w.w.",
",.,.,.,.@.@.@.(.H H H v z z 4 5 5 5 5 5 [ { { n.[.[.i 5 5 5 5 5 5 5 5 ) ' ' m m m M.[.[.[.[.[.[.[.[.%.X.X.'.[.[.Z + + #.w.-.-.-.",
",.,.,.,.@.@.@.(.# + + ` ' ' e 5 5 5 5 5 2.x.x.N.[.[.i 5 5 5 5 5 5 5 5 ) ' ' X     m.[.[.[.[.[.[.[.[.=     v.[.[.Z + + #.w.-.-.-.",
",.,.,.,.@.@.@.(.# + + ` ' ' e 5 5 5 5 5 2.x.x.N.[.[.i 5 5 5 5 5 5 5 5 ) ' ' X     m.[.[.[.[.[.[.[.[.=     v.[.[.Z + + #.w.-.-.-.",
"(.(.(.(.i...I d 2 @ @ ] ] ] e 5 5 5 5 5 2.x.x.N.[.[.i 5 5 5 5 5 5 5 5 1.1.1.X     m.[.[.%.%.%.'.[.[.=     Q.{.{.Z + + y.s.;.;.;.",
"l.l.l.k.e.-     > 5 , 4.x.x.r 5 5 5 5 5 2.x.x.N.[.[.i 5 5 5 5 5 5 5 , K.$X$Xo     m.[.[.&     7.[.[.=     J.$X@XC + + #.w.@.@.@.",
"l.l.l.k.e.-     > 5 , 4.x.x.r 5 5 5 5 5 2.x.x.N.[.[.i 5 5 5 5 5 5 5 , K.$X$Xo     m.[.[.&     7.[.[.=     J.$X@XC + + #.w.@.@.@.",
"j.j.j.z.k.I t t 5 5 5 4.x.x.r 5 5 5 5 5 2.x.x.N.[.[.i 5 5 5 5 5 5 5 5 K.$X$Xh h 6 '.[.[.J F F m.[.[.L h h J.#X@XC + + y.f.p.p.p.",
"@.@.+.w.e.e.e.a.w 5 5 4.x.x.r 5 5 5 5 5 2.x.x.N.[.[.i 5 5 5 5 5 5 5 5 K.$X$X$X$X$X'.[.[.[.[.[.[.[.[.^.#X#X#X#X@XC + + #.w.-.-.-.",
"@.@.@.w.e.e.e.a.w 5 , 4.x.x.r 5 5 5 5 5 2.x.x.N.[.[.i 5 5 5 5 5 5 5 5 K.$X$X$X$X$X'.[.[.[.[.[.[.[.[.^.#X#X#X#X@XC + + #.w.-.-.-.",
"@.@.@.w.e.e.e.a.4 1 1 | } } e 5 5 5 5 5 2.x.x.b.n.n.u 5 5 5 5 5 5 5 5 G.H.H.6.6.6.n.n.n.n.n.n.n.n.n.~.!.!.!.!.!.C + + #.w.-.-.-.",
"t.t.t.t.=.=.=._.# + + ` ' ' e 5 5 5 5 5 2.x.x.x.x.x.y 5 5 5 5 5 5 5 5 5 5 , _ ' '  .x.x.x.x.x.x.x.x.x.x.x.x.x.x.k + + >.p.=.=.=.",
"@.@.@.@.R R R (.# + + ` ' ' e 5 5 5 5 5 2.x.x.x.x.x.y 5 5 5 5 5 5 5 5 5 5 , _ ' '  .x.x.x.x.x.x.x.x.x.x.x.x.x.x.k + + &.@.R R R ",
"@.@.@.@.R R R (.G S D N N N 4 5 5 5 5 5 [ } } x.x.x.K J J w 5 5 5 5 5 5 5 , x B B | } } } } } } } } } } } [ V V D e e *.@.R R R ",
"t.t.t.p.=.=.=.).(.(.).# + + 4 5 5 5 5 5 / ' ' | x.x.x.x.x.r 5 5 5 5 5 5 5 5 5 5 , ) ' ' ' ' ' ' ' ' ' ' ' k + + <.p.p.p.t.=.=.=.",
"@.@.@.-.@.@.@.;.@.@.p.# + + 4 5 5 5 5 5 / ' ' | x.x.x.x.x.r 5 5 5 5 5 5 5 5 5 5 , ) ' ' ' ' ' ' ' ' ' ' ' k + + <.W W W @.+.+.+.",
"@.@.@.-.@.@.@.;.@.@.p.S e e 2 1 2 5 5 5 m x x | } } x.x.x.K J J w 5 5 5 5 5 5 5 , m x x x x x x x x N N N D S S h.W W W @.+.+.+.",
"@.@.@.-.@.@.@.;.@.@.p.,.,.,.* + + 4 5 5 5 5 5 / ' ' | x.x.x.x.x.r 5 5 5 5 5 5 5 5 5 5 5 5 5 5 5 5 5 O + + <.l.l.(.W W W @.+.+.+.",
"u.u.u.f.p.p.p.a.t.t.d.p.p.p.3 + + 4 5 5 5 5 5 / ' ' | x.x.x.x.x.r 5 5 5 5 5 5 5 5 5 5 5 5 5 5 5 5 5 O + + <.k.k.z.;.;.;.;.=.=.=.",
"9.9.9.w.-.-.-.;.+.@.,.@.@.@.H D D 2 1 1 1 1 1 z z z M M M M M M 3 1 1 1 1 1 1 1 1 1 1 1 1 1 1 1 1 1 e S y :.9.9.u.@.@.@.+.R R R ",
"9.9.9.w.-.-.-.;.@.@.t.@.@.@.(.l.l.* + + + + + + + + + + + + + + + + + + + + + + + + + + + + + + + + ..,.,.s.9.9.u.@.@.@.+.R R R ",
"u.u.u.s.p.p.p.p.;.;.a.;.;.;._.(.(.3 + + + + + + + + + + + + + + + + + + + + + + + + + + + + + + + + $.a.a.j.u.u.k.;.;.;.-.Q Q Q ",
"9.9.9.k.l.l.l.d.,.,.a.@.@.@.t.@.@.G y y y y ; ; y y y y S S S S o . . S F F o . . ; y y o . . ; ; y o.@.@.u.9.9.u.@.@.@.-.@.@.@.",
"9.9.9.k.l.l.l.d.,.,.a.@.@.@.t.@.@.t.@.@.@.=.R R @.@.@.@.,.,.,.,.%     :.e.e.$     I @.W %     I R =.@.@.@.u.9.9.u.@.@.@.-.@.@.@.",
"9.9.9.k.l.l.l.d.,.,.a.@.@.@.t.@.@.t.@.@.@.=.R R +.@.@.@.,.,.,.,.%     :.e.e.$     I @.W %     I R =.@.@.@.u.9.9.u.@.@.@.-.@.@.@.",
"e.e.e.u.0.0.0.f.y.y.f.-.-.-.p.-.-.a.w.w.w.;.W W =.w.w.w.s.u.u.u.f s s ,.r.r.f d d ,.a.@.f s s O.8.s.,.,.,.z.k.k.z.-.-.-.t.,.,.,.",
"9.9.9.8.R R R u.9.9.u.@.@.@.t.@.@.t.9.9.9.-.R R Q e.e.e.u.e.e.e.-.-.-.w.9.9.9.(.l.l.l.@.@.@.s.9.9.s.,.,.,.(.l.l.(.@.@.@.,.,.,.,.",
"9.9.9.8.R R R u.9.9.u.@.@.@.t.@.@.t.9.9.9.-.R R Q e.e.e.u.e.e.e.-.-.-.w.9.9.9.(.l.l.z.@.@.@.s.9.9.s.,.,.,.(.l.l.(.@.@.@.,.,.,.,.",
"9.9.9.8.R R R u.9.9.u.@.@.@.t.@.@.t.9.9.9.-.R R Q e.e.e.u.e.e.e.-.-.-.w.9.9.9.(.l.l.z.@.@.@.s.9.9.s.,.,.,.(.l.l.(.@.@.@.,.,.,.,."
};
