/* XPM */
static char *ec509f456e6f440aba7e524cb0b6733d4hdbqMtCtki7GHMZ[] = {
/* columns rows colors chars-per-pixel */
"64 64 188 2 ",
"   c #48494A",
".  c #4E534C",
"X  c #51564E",
"o  c #525A4D",
"O  c #515550",
"+  c #555B52",
"@  c #585F56",
"#  c #555658",
"$  c #595D59",
"%  c #56614E",
"&  c #58664F",
"*  c #5D6D4F",
"=  c #5B7749",
"-  c #576050",
";  c #5A6454",
":  c #5E6A55",
">  c #5D635B",
",  c #5F695A",
"<  c #5C7050",
"1  c #607D4D",
"2  c #616E56",
"3  c #61675F",
"4  c #616A5D",
"5  c #627354",
"6  c #657B53",
"7  c #697E53",
"8  c #68775A",
"9  c #667958",
"0  c #6B7E5A",
"q  c #636566",
"w  c #666C65",
"e  c #686F66",
"r  c #696F69",
"t  c #667162",
"y  c #6A7365",
"u  c #6C7A64",
"i  c #6C736A",
"p  c #6E786A",
"a  c #70766E",
"s  c #717B6D",
"d  c #6E7071",
"f  c #717572",
"g  c #757C73",
"h  c #787E77",
"j  c #797B7C",
"k  c #699948",
"l  c #658052",
"z  c #6A8354",
"x  c #6D8B55",
"c  c #6C825B",
"v  c #758D5E",
"b  c #6F9057",
"n  c #719756",
"m  c #749C56",
"M  c #76905F",
"N  c #7A955E",
"B  c #779858",
"V  c #7D9C5F",
"C  c #72AF48",
"Z  c #76A055",
"A  c #7DA957",
"S  c #7BA35C",
"D  c #79B351",
"F  c #7FB658",
"G  c #6F8362",
"H  c #738563",
"J  c #758B60",
"K  c #788C67",
"L  c #77856C",
"P  c #778C6A",
"I  c #7A8C6B",
"U  c #779061",
"Y  c #799262",
"T  c #7E9A62",
"R  c #7C926E",
"E  c #7E9A6A",
"W  c #768272",
"Q  c #798375",
"!  c #7C8A73",
"~  c #7C837A",
"^  c #7E8979",
"/  c #84AC5D",
"(  c #89AF5F",
")  c #82B75A",
"_  c #8BB45E",
"`  c #83B85B",
"'  c #8DBC5F",
"]  c #91BD5F",
"[  c #809C64",
"{  c #80926E",
"}  c #829C6A",
"|  c #81877F",
" . c #828B7D",
".. c #829775",
"X. c #839C72",
"o. c #83917A",
"O. c #8C9D7C",
"+. c #83A463",
"@. c #81A862",
"#. c #89AC62",
"$. c #85A269",
"%. c #83A869",
"&. c #89AB6C",
"*. c #83B065",
"=. c #8BB463",
"-. c #85BA61",
";. c #8ABB63",
":. c #8BB269",
">. c #8EBE6A",
",. c #93BF60",
"<. c #92B568",
"1. c #90BE6B",
"2. c #8AA573",
"3. c #8CAC72",
"4. c #8EB672",
"5. c #93BC73",
"6. c #96BF78",
"7. c #9DBC7A",
"8. c #8CC35D",
"9. c #92CA5C",
"0. c #8EC363",
"q. c #8FC069",
"w. c #93C465",
"e. c #98C662",
"r. c #95CC61",
"t. c #9ACD67",
"y. c #93C26E",
"u. c #97C96A",
"i. c #9BCD6B",
"p. c #9BD162",
"a. c #9ED06E",
"s. c #95C272",
"d. c #99C575",
"f. c #9DCC73",
"g. c #9CC57A",
"h. c #9ECA79",
"j. c #9FD070",
"k. c #A1CE6A",
"l. c #A4D36B",
"z. c #A7D86B",
"x. c #ABDB6E",
"c. c #A3CD7D",
"v. c #A2D174",
"b. c #AFDF70",
"n. c #A6D479",
"m. c #A7D47C",
"M. c #A8D47E",
"N. c #A9D57E",
"B. c #858A81",
"V. c #888D85",
"C. c #888989",
"Z. c #879280",
"A. c #899283",
"S. c #8D9884",
"D. c #939A8D",
"F. c #939592",
"G. c #959A90",
"H. c #94A687",
"J. c #98B381",
"K. c #9DBB83",
"L. c #9CB28A",
"P. c #9BA394",
"I. c #9DA299",
"U. c #A0AB97",
"Y. c #A2A79D",
"T. c #A3AC9C",
"R. c #A6B09D",
"E. c #A8B29C",
"W. c #A6ACA1",
"Q. c #A9AFA3",
"!. c #AEAEAB",
"~. c #AEAEAC",
"^. c #ACB1A5",
"/. c #AEB1A8",
"(. c #A3C683",
"). c #A1C882",
"_. c #A5CB86",
"`. c #A6D080",
"'. c #A9D382",
"]. c #ABD781",
"[. c #ABD583",
"{. c #ADD685",
"}. c #AFD887",
"|. c #AFD789",
" X c #B1D78E",
".X c #B1D98A",
"XX c #B3D88F",
"oX c #B3D890",
/* pixels */
"9.9.9.w.` ` ` i.r.r.n.n.n.n..Xn.n.M.C C C h.n.n.].1.1.1.>.` ` ` r.r.r.8.C C C i.r.r.f.` ) ) y.` ` y.9.9.9.u.` ` >.` ` ` w.9.9.9.",
"9.9.9.w.` ` ` i.r.r.n.n.n.n..Xn.n.N.C C C h.n.n.].1.1.1.>.` ` ` r.r.r.8.C C C i.r.r.f.` ) ) y.` ` y.9.9.9.u.` ` >.` ` ` w.9.9.9.",
"9.9.9.w.` ` ` i.r.r.n.n.n.n..Xn.n.M.C C C h.n.n.].1.1.1.>.` ` ` r.r.r.8.C C C i.r.r.f.` ) ) y.` ` y.9.9.9.u.` ` >.` ` ` w.9.9.9.",
"r.r.r.u.>.>.>.v.t.t.N.].].].{.v.v.M.) ) ) c.v.v.N.h.h.h.d.;.;.;.i.i.i.u.` ` ` v.t.t.h.;.;.;.s.;.;.d.v.v.v.h.;.;.y.w.w.w.i.r.r.r.",
"9.9.9.w.;.;.;.i.9.9.v.n.n.n.v.9.9.f.` ` ` f.r.r.a.n.n.n.u.` ` ` r.r.r.t.9.9.9.i.9.9.u.` ` ` y.` ` d.n.n.n.h.` ` q.9.9.9.r.9.9.9.",
"9.9.9.w.;.;.;.i.9.9.v.n.n.n.v.9.9.f.` ` ` f.r.r.a.n.n.n.u.` ` ` r.r.r.t.9.9.9.i.9.9.u.` ` ` y.` ` d.n.n.n.h.` ` q.9.9.9.r.9.9.9.",
"9.9.9.w.;.;.;.i.9.9.v.n.n.n.v.9.9.f.` ` ` f.r.r.a.n.n.n.u.` ` ` r.r.r.t.9.9.9.i.9.9.u.` ` ` y.` ` d.n.n.n.h.` ` q.9.9.9.r.9.9.9.",
"i.i.i.f.s.s.s.s.>.>.d.>.>.>.|.{.{. Xd.d.d.g.>.>.s.>.>.>.s.s.s.s.s.s.s.s.>.>.>.s.>.>.d.i.i.i.m.a.a.m.i.i.i.v.i.i.v.i.i.i.d.>.>.>.",
"9.9.9.w.;.;.;.>.` ` y.` ` ` '.n.n.{.1.1.1.s.` ` >.` ` ` >.;.;.;.;.;.;.>.` ` ` >.` ` u.9.9.9.v.r.r.v.9.9.9.a.9.9.i.9.9.9.0.` ` ` ",
"9.9.9.w.;.;.;.>.` ` y.` ` ` '.n.n.{.1.1.1.s.` ` >.` ` ` >.;.;.;.;.;.;.>.` ` ` >.` ` u.9.9.9.v.r.r.v.9.9.9.a.9.9.i.9.9.9.0.` ` ` ",
"w.w.w.s.s.s.s.d.y.y.g.h.h.h.XX.X.XoXg.g.g.g.y.y.d.u.u.u.h.d.d.d.s.s.s.s.;.;.;.d.u.u.h.u.u.u.N.d.d.N.n.n.n.].n.n.N.a.a.a.d.y.y.y.",
"C C C ) ` ` ` >.` ` d.n.n.n..Xn.n.|.1.1.1.s.` ` >.r.r.r.t.9.9.9.` ` ` ) C C C i.9.9.u.` ` ` y.` ` d.n.n.n..Xn.n.].9.9.9.w.` ` ` ",
"C C C ) ` ` ` >.` ` d.n.n.n..Xn.n.|.1.1.1.s.` ` >.r.r.r.t.9.9.9.` ` ` ) C C C i.9.9.u.` ` ` y.` ` d.n.n.n..Xn.n.].9.9.9.w.` ` ` ",
"C C C ) ` ` ` >.` ` d.n.n.n..Xn.n.|.1.1.1.s.` ` >.r.r.r.t.A & * % % ) ) K W 5 ; & & c ` ` ` y.` ` d.n.n.n..Xn.n.].9.9.9.w.` ` ` ",
"i.i.i.c.g.g.g.>.-.-.s.g.g.g.'.v.v.N.y.y.y.c.f.f.n.v.v.v.c.}   X     g.g.^ j 3       4 y.y.y. X{.{.XXs.s.s._.c.c._.d.d.d.h.f.f.f.",
"9.9.9.u.1.1.1.` C C ;.;.;.;.f.9.9.i.) ) ) u.9.9.i.r.r.S 9 5 . - +.+.l.l.} I c 9 : . , G H G ! R I (.) ) ) d.1.1.d.;.;.;.w.9.9.9.",
"9.9.9.u.1.1.1.` C C ;.;.;.;.f.9.9.i.) ) ) u.9.9.i.r.r.x   X   o b.b.b.b.+.J v J 5   @ q w q q w q K.) ) ) d.1.1.d.;.;.;.w.9.9.9.",
"j.j.j.c.h.h.h.s.;.;.d.d.d.d.c.f.f.c.>.>.>.c.f.&.2.1.e./ N T N [ b.b.b.b.=.+.v , u j | C.V.q q w q K.y.y.y.).g.g.).d.d.d.h.f.f.f.",
"9.9.9.r.9.9.9.i.9.9.a.9.9.9.y.` ` y.D D D >.` Q j &.,.k.b.x.b.x.b.b.x.b.e.,.z   f ~.^.~.Q.q q w q 3.` ` ` y.` ` y.r.r.r.w.` ` ` ",
"9.9.9.r.9.9.9.i.9.9.a.9.9.9.y.` ` y.D D D >.` o.| :.w.t.x.z.z.l.z.z.z.x.w.' z . p P.P.Q.T.w y t w 3.` ` ` y.` ` y.r.r.r.w.` ` ` ",
"9.9.9.r.9.9.9.i.9.9.a.9.9.9.y.` ` y.D D D >.` W.~.7.,.k.b.l.,.] ,.,.,.,.V J :       3 ~.Q.q q w q 3.` ` ` y.` ` y.r.r.r.w.` ` ` ",
"].].].N.a.a.a.}.].].{.d.d.d.g.y.y.g.>.>.>.4.*.U.W.7.w.k.x.l.] ,.,.,.,.,.+.U 8 X o . w W.T.r i p r J.s.d.f.n.i.i.c.v.v.v.v.f.f.f.",
"n.n.n.v.9.9.9.].n.n.`.;.;.;.s.` ` y.` ` ) q q w q +.,.,.,.] ,.] J J J J U J U J 5   +   X ~.~.r q i q +.r.a.9.9.i.r.r.r.i.r.r.r.",
"n.n.n.v.9.9.9.].n.n.`.;.;.;.s.` ` y.` ` ) q q w q +.,.,.,.] ,.] J J J J U J U J 5   +   X ~.~.r q i q +.r.a.9.9.i.r.r.r.i.r.r.r.",
"].].].N.i.i.i.}.].].{.s.s.s.g.q.q.g.y.x.x.k.k.H w Y T #.,.=.N T U U U U T U H y 4 . - . + Q./.s r s e u y E i.i.v.i.i.i.v.i.i.i.",
"9.9.9.0.D D D i.9.9.a.9.9.9.j.9.9.f.' b.x.b.b.L q H J +.,._ J M J J v J M J u q $   +   . ~.~.r q y q w q Y r.r.i.` ` ` ;.` ` ` ",
"9.9.9.0.D D D i.9.9.a.9.9.9.j.9.p.b.l.x.x.t.t.[ K M M N T V M M v v M M G u 4 @ + o - . o e y y w 4 @ 4 y T r.r.i.` ` ` ;.` ` ` ",
"9.9.9.0.D D D i.9.9.a.9.9.9.j.9.p.b.x.b.x.,.,.T J M J J J M J M J J v J t q @       +   .     q q @   > q Y r.r.i.` ` ` ;.` ` ` ",
"r.r.r.i.0.0.0.j.r.r.f.0.0.0.v.t.<.} $.t.t.w.w.[ Y Y U U U Y U U u u u u 4 @ s B.B.B.A.B.| . X > $ ; X 4 e s K E d.h.h.h.s.;.;.;.",
"9.9.9.t.r.r.r.i.9.9.u.` ` ` f.r.@.q y ,.,.,.,.N J U J J J U J J q q q q +   B.~.!.~.^.~.W.        X   $ q w q u >.n.n.n.u.` ` ` ",
"9.9.9.t.r.r.r.i.9.9.u.` m x $.@.U e u ] ] =.( N U U H H H J H J w w > > y e S.^.^.^.T.G.D.+ + o . + . ; > w w u >.n.n.n.u.` ` ` ",
"9.9.9.t.r.r.r.i.9.9.u.` &   $ q e q y ,.,.J J M J u q q q e q e q q     D.~.Q.~.!.~.Y.q w q q .   X   .   + q u >.n.n.n.u.` ` ` ",
"` ` ` 0.9.9.9.{.n.n.'.` < . 4 y u u H ;.;.Y J J J u w w e t w t 4 4 ; > P.^.E.T.U.T.P.i p i i o o o . o . : w u %.@.;.;.w.9.9.9.",
"` ` ` 0.9.9.9.{.n.n.'.` &   $ q u J U J J j j i q w q q q 4   .     !.~.^.~.O.J L j ~ j ~ j j w q +   .   + q w q w ;.;.w.9.9.9.",
"` ` ` 0.9.9.9.{.n.n.'.` &   $ q u J U J J j j i q w q q q 4   .     !.~.^.~.O.J L j ~ j ~ j j w q +   .   + q w q w ;.;.w.9.9.9.",
">.>.>.y.w.w.w.|.].].X   X       ; J U J J j j i q @       X   o b.b.x.b.+.J U J L j ~ j ~ j j h j >   $ q w q y q w w.w.u.w.w.w.",
"1.1.1.1.` ` ` ].n.n.X   o       ; J M J J j j i q @       X   o b.b.x.b.+.J v J L j ~ j ~ j j h j >   $ q w q e q w 9.9.w.;.;.;.",
"1.1.1.1.` ` ` c.+ + + . u g w . o + % o o ~ ~ , + o . . . 5 _ _ x.x.w.w.' _ z o > e p e y + + Q ~ Q g p w y w y w y y y >.;.;.;.",
"1.1.1.1.` ` ` c.    X   p j q   .   .     j j +   .       5 ,.w.b.b.,.,.] ,.7   + q i q w     h j ~ j p q w q e q w q q >.;.;.;.",
"{.{.{.].a.a.a.5.. . y r t q > . ; r u X X q q 4 > y r w > H l.l.b.b.w.w.:.+.0 X + $ 4 $ > . X Q ~ | ~ Q g g i s i y e r I P :.>.",
"n.n.n.v.r.r.r.:.    g j >       > j Q         w q f j d q K b.x.b.b.,.,.[ J 2       +   .     h j ~ j ~ j g q i q w q q e q S ` ",
"n.n.n.v.r.' x c # # q q > # $ # 3 d s q q     i d h j f d { b.x.b.b.+.+.K u :       + # $     h j ~ j ~ j g q y # $ # # w q S ` ",
"c.c.c.N.v.:.    q q O   4 q w q w q i j h     f j ~ j j j O.b.b.b.b.J J u q >       @ q w     h j ~ j ~ j g q e   .     w q &.s.",
"` ` ` =./ B o + y y 4 > u s s y u y y h W + + s ~ ! Q ! o.2.x.x.l.l.J J u w , + + o , y y + ; ~ ~  .~ ~ ~ W y t o o o o t w @.;.",
"` ` ` x   o     q q Y.~.Q.~.F.j g q w q q j j Q j I J <.b.x.b.x.J J q q +   > q w q p j ~ j j ~ j ~ j ~ j f q w   .     .   S ;.",
"` ` ` b . % X + w w Y.Q.R.Q.D.~ W e y w w ~ ~ W ~ K v =.x.z.x.z.J J w w ; X 4 w w w s ~ Q ~ ~ ~ ~ | ~ Q ~ g w t X o . . o . S ;.",
"y.y.y.J   + q w q q W.~.^.~.!.~.I.j ~ q q j j K J U J J J U J J q q     w q $   q j | j ~ j j h j ~ j a q >   o         .   S -.",
"` ` ` x   o q w q q W.~.^.~.!.~.I.j ~ q q j j J J N J J J M J v q q     w q @   > j | j ~ j j h j ~ j p q >   o         .   k C ",
"` 6 . o . o w p r r g a s a ~ | ^ ~ ^ r i i w t y J M I Q W Q W X X w w y w s h Q ~ | ~ | ~ ~ Q ~ s y y w 4 . % . o . . o . k C ",
"y.9   .   + q w q q r q y q f j ~ j ~ q q q q w q H J L j ~ j ~     q q y q g j h j | j ~ j j h j p q w q >   +         .   S -.",
"` 6 . > p s g W g g p y u y p p s s s i p i w y y ! ! ^ ~ L > 4 s s Q Q W g Q ~ W p W ~ | ~ ~ Q ~ s y 4 @ : o ; + o . . o . Z ) ",
"` 5   > j ~ j h j j e q y q w q w q i q q q q w q h j j j s   o j j j j ~ j ~ j f q a j ~ j j h j p q $   .   +         .   m ) ",
"` n l J E E E X.j j f d f d f d p q i q q q q p d ~ j j j g q w j j j j g d s d r q p d f d d p d 4 # +   .   +     1 1 z 6 A ) ",
"i.i.i.h.s.s.s.6.j j ~ j ~ j j j h q i q q q q h j ~ j j j ~ j ~ j j j j p q w q w q i q w q q w q +   .   .   o   . >.>.>.-.-.-.",
"9.9.9.w.;.;.;.>.R R ..R R R Z.~ ~ a s i p w w s g W g h ~ W Q W ~ ~ g g y w y r e q t > 4 > > > > 9 5 9 5 0 6 l 9 5 ` ` ) C C C ",
"9.9.9.w.;.;.;.>.` ` y.` ` ` H.j ~ j ~ j h q q w q w q d j Q j Q j j q q w q w q $   +   .         +.1.1.1.f.9.9.i.` ` ` ) C C C ",
"i.i.i.f.s.s.s.s.>.>.d.>.>.>.L.Z.S.A.o. . .i i u i u i f ~ W Q W ~ ~ i i u i y e 4 + : + ; : ; ; ; &.d.d.d.c.i.i.v.>.>.>.;.F F F ",
"9.9.9.v.n.n.n.g.1.1.d.` ` ` y.` ` y.` ` ) q q w q w q q q e q e q q q q y q @       + q w D ` C C -.` ` ` i.9.9.i.` ` ` ;.` ` ` ",
"9.9.9.v.n.n.n.g.1.1.d.` ` ` y.` ` y.` ` ) q q w q w q q q e q w q q q q y q @       + q w D ` C C -.` ` ` i.9.9.i.` ` ` ;.` ` ` ",
"9.9.9.v.n.n.n.g.1.1.d.` ` ` y.` ` y.` ` ` -.C C ) G q q q 4   .         X   .   = C ` D D D ` C C -.` ` ` i.9.9.i.` ` ` ;.` ` ` ",
"r.r.r.u.0.0.0.h.u.u.h.;.;.;.s.;.;.d.w.w.w.>.D D -.H q q q w   X         o   .   c u.d.` ` ` s.8.8.d.1.1.1.N.v.v.m.;.;.;.y.1.1.1.",
"9.9.9.8.C C C i.9.9.i.` ` ` y.` ` y.9.9.9.;.C C F r.r.r.i.r.r.w.=.=.=.w.8.8.8.N.n.n.c.` ` ` f.9.9.f.1.1.1.'.n.n.].` ` ` 1.1.1.1.",
"9.9.9.8.C C C i.9.9.i.` ` ` y.` ` y.9.9.9.;.C C F r.r.r.i.r.r.r.;.;.;.w.9.9.9.].n.n.c.` ` ` f.9.9.f.1.1.1.'.n.n.].` ` ` 1.1.1.1.",
"9.9.9.8.C C C i.9.9.i.` ` ` y.` ` y.9.9.9.;.C C F r.r.r.i.r.r.r.;.;.;.w.9.9.9.].n.n.c.` ` ` f.9.9.f.1.1.1.'.n.n.].` ` ` 1.1.1.1."
};
